<svg id="Grupo_87718" data-name="Grupo 87718" xmlns="http://www.w3.org/2000/svg" xmlns:xlink="http://www.w3.org/1999/xlink" width="86.109" height="86.435" viewBox="0 0 86.109 86.435">
  <defs>
    <clipPath id="clip-path">
      <rect id="Rectángulo_35808" data-name="Rectángulo 35808" width="86.109" height="86.435" fill="none"/>
    </clipPath>
  </defs>
  <g id="Grupo_87718-2" data-name="Grupo 87718" clip-path="url(#clip-path)">
    <path id="Trazado_123368" data-name="Trazado 123368" d="M2.449,69.4a1.338,1.338,0,0,1-1.36-1.323c-.222-2.246-.369-4.5-.548-6.75C.366,59.111.173,56.891.018,54.668-.1,53.05.283,52.679,1.936,52.674A1.588,1.588,0,0,1,3.091,52.4c8.9.007,17.806-.031,26.709.016,5.424-.044,10.848-.013,16.272-.017,3.393,0,6.787-.022,10.181.01,1.871,0,3.741-.029,5.613.008q4.095-.035,8.189,0c3.406-.019,6.813-.017,10.218-.011a2.666,2.666,0,0,1,1.438.2,1.724,1.724,0,0,1,.254,1.494,45.521,45.521,0,0,0-.264,4.683c-.141,2.833-.381,5.664-.41,8.5a4.327,4.327,0,0,1-.419,2.191,1.515,1.515,0,0,1-.916.212c-3.415,0-6.83.036-10.246-.016q-8.275.056-16.549,0-9.929.057-19.856,0-8.364.056-16.728,0c-4.382.052-8.764.016-13.146.018a1.394,1.394,0,0,1-.983-.276" transform="translate(0 -21.999)" fill="#b68b79"/>
    <path id="Trazado_123369" data-name="Trazado 123369" d="M84.61,104.806c.014.523-.1,1.046.655,1.265a1.131,1.131,0,0,1,.68,1.217c-.142,2.109-.322,4.216-.5,6.322-.147,1.76-.311,3.518-.462,5.278-.069.807-.072,1.625-.2,2.422a1.338,1.338,0,0,1-1.407,1.266h-75c-1.5,0-1.875-.368-1.972-1.862-.08-1.236-.2-2.469-.308-3.7.38-.361.861-.271,1.313-.28,2.071-.041,4.145.062,6.215-.058a11.877,11.877,0,0,0,2.642-.089c2.841-.065,5.682-.018,8.522-.029a24.258,24.258,0,0,0,3.729-.166.929.929,0,0,1,.585.084,2.629,2.629,0,0,0,2.326.01,1.023,1.023,0,0,1,.586-.1c2.828,0,5.656-.016,8.484.006a20.247,20.247,0,0,1,3.191-.134,4.367,4.367,0,0,0,3.83,0c3.766-.073,7.534-.046,11.3-.176a1.174,1.174,0,0,1,.486.157,2.892,2.892,0,0,0,3.245.016,1.292,1.292,0,0,1,.486-.167c3.638.042,7.268-.305,10.905-.183a2.1,2.1,0,0,1,.858.4,2.551,2.551,0,0,0,4.01-1.835,3.738,3.738,0,0,1,.154-.767,7.034,7.034,0,0,0,.461-2.109c.215-1.487.444-2.972.633-4.463.115-.908.042-1-.89-1.008-2.427-.015-4.855,0-7.281-.009a1.86,1.86,0,0,1-1.25-.237c-.4-1.118-.027-2.237.044-3.343.181-2.8.4-5.6.619-8.4.19-2.4.354-4.792.542-7.187a1.151,1.151,0,0,1,.177-.575,1.335,1.335,0,0,1,1.057-.287c1.393-.012,2.787-.028,4.179,0a4.6,4.6,0,0,1,4.646,5.147c-.373,4.187-.59,8.386-.99,12.571-.165,1.723-.087,1.755,1.6,1.8a2.162,2.162,0,0,0,2.093-.8" transform="translate(-2.562 -36.142)" fill="#9d7059"/>
    <path id="Trazado_123370" data-name="Trazado 123370" d="M73.62,129.7c-3.776-.023-7.546.3-11.323.173-.109-.335.16-.533.289-.778a2.561,2.561,0,0,0-.607-3.294,2.525,2.525,0,0,0-3.2,0,2.561,2.561,0,0,0-.608,3.294c.129.245.4.443.287.778-3.886.206-7.776.19-11.666.176-.106-.379.212-.57.374-.825a2.554,2.554,0,1,0-4.233,0c.163.255.477.448.38.825-3.7.257-7.407.163-11.111.17-.305,0-.643.115-.91-.151.028-.352.321-.538.5-.793a2.554,2.554,0,1,0-4.153,0c.18.255.473.441.5.794a4.236,4.236,0,0,1-1.668.327q-5.437,0-10.875,0c-.024-.426.363-.56.586-.8a2.55,2.55,0,1,0-3.605-.009c.226.241.6.381.6.8-.251.289-.591.177-.894.179-2.249.013-4.5.013-6.748.018-.255-3.145-.5-6.29-.771-9.433a1.445,1.445,0,0,1,.923-1.68c.682-.239.17-.759.365-1.092.6.852,1.483.776,2.372.775,3.971,0,7.943-.032,11.914.01,5.562-.044,11.124-.035,16.686-.006,5.459-.025,10.918-.04,16.377.005,5.247-.052,10.494-.016,15.742-.018a1.352,1.352,0,0,1,.983.267q4.441.005,8.881.012c.922,0,.962.1.817,1.013-.294,1.847-.548,3.7-.8,5.555a2.536,2.536,0,0,1-.515,1.437c-.318-.165-.358-.509-.5-.784a2.563,2.563,0,0,0-4.678,2.086c.111.317.4.585.293.969" transform="translate(-1.996 -49.71)" fill="#b68b79"/>
    <path id="Trazado_123371" data-name="Trazado 123371" d="M20.245,105.832c-4.259,0-8.518-.016-12.776.03-.845.009-1.444-.071-1.487-1.064q-.519-6.732-1.037-13.464c-.131-1.726-.24-3.453-.359-5.18a1.159,1.159,0,0,1,.592-.108c4.208.014,8.416-.006,12.623.01a2.448,2.448,0,0,1,.69.081.876.876,0,0,1,.292.158,1.365,1.365,0,0,1,.32.963q.469,6.841,1.02,13.676c.11,1.383.22,2.769.285,4.157a.958.958,0,0,1-.162.74" transform="translate(-1.925 -36.134)" fill="#9d7059"/>
    <path id="Trazado_123372" data-name="Trazado 123372" d="M2.064,37.528a15.211,15.211,0,0,1,.977-10.139c2.686-5.563,8.47-6.993,13.479-3.351a1.021,1.021,0,0,0,1.466,0c2.526-1.8,5.264-2.6,8.329-1.5.275.549-.067,1.013-.233,1.488a1.252,1.252,0,0,0,.05,1.313.923.923,0,0,1,.146.751,28.616,28.616,0,0,0-.2,6.427,4.633,4.633,0,0,1-4.963,4.914c-3.481-.082-6.967.026-10.449-.035-2.614-.046-5.215.258-7.827.2a4.858,4.858,0,0,1-.779-.06" transform="translate(-0.682 -9.252)" fill="#cf0000"/>
    <path id="Trazado_123373" data-name="Trazado 123373" d="M113.929,39.9h-8.193c-.11-.633.316-1.09.555-1.6.265-.563.282-.922-.382-1.231a2.336,2.336,0,0,1-1.447-2.45c.23-2.51.119-5.024.174-7.536a2.363,2.363,0,0,1,1.165-2.019c.556-.353.533-.713.26-1.227-.287-.54-.759-.95-1-1.514,2.821-.778,5.3.084,7.567,1.69a1.074,1.074,0,0,0,1.534-.009c3.4-2.472,7.284-2.622,10.323-.449a8.763,8.763,0,0,1,2.881,3.4,4.907,4.907,0,0,1-1.806,3.229,8.273,8.273,0,0,1-.889-2.222,3.111,3.111,0,0,0-.821-1.94,2.372,2.372,0,0,0-2.421-.74,7.23,7.23,0,0,0-6.02,1.567,2.98,2.98,0,0,1-4.062-.006,7.744,7.744,0,0,0-3.072-1.56c-.823-.162-.97-.01-.718.776a16.925,16.925,0,0,1,.106,9.759c-.276,1.027-.248,1.067.842,1.069,3.043,0,6.085,0,9.128,0a3.193,3.193,0,0,1,1.2.11c.414.443-.05.622-.288.778a12.639,12.639,0,0,1-4.619,2.118" transform="translate(-43.862 -9.253)" fill="#cf0000"/>
    <path id="Trazado_123374" data-name="Trazado 123374" d="M132.3,102.754c-.043.993-.644,1.185-1.488,1.048a3.318,3.318,0,0,0-.521,0c-2.143,0-2.233-.174-1.968-2.368.248-2.055.349-4.127.521-6.19.16-1.919.243-3.851.515-5.755a4.476,4.476,0,0,0-4.355-5.2c-1.738-.005-3.476,0-5.214.005l-.1-.117a6.034,6.034,0,0,1,.258-2.661l11.148-.025a3.3,3.3,0,0,1,2.812.012q-.52,6.651-1.038,13.3c-.2,2.65-.383,5.3-.573,7.952" transform="translate(-50.256 -34.09)" fill="#8d5b44"/>
    <path id="Trazado_123375" data-name="Trazado 123375" d="M2.382,37.891c.207-.293.519-.2.8-.211,6.138-.245,12.279-.218,18.417-.153a4.311,4.311,0,0,0,4.531-4.553c-.115-1.441-.022-2.9-.021-4.348A8.535,8.535,0,0,1,26.25,26.9c.092-.452.519-1.081-.364-1.343-.227-.067-.057-.354.008-.54q.372-1.062.739-2.126a7.264,7.264,0,0,1,3.149,1.921c.236.3.111.613,0,.908A16.831,16.831,0,0,0,30,37.88c.05.136.1.274.137.412.1.7.756,1.209.671,1.971q-5.355.015-10.711.028-8.579.006-17.158,0a18.566,18.566,0,0,1-.555-2.4" transform="translate(-1 -9.615)" fill="#9c0208"/>
    <path id="Trazado_123376" data-name="Trazado 123376" d="M48.871,36.128a19.47,19.47,0,0,1-1.427-7.85,14.714,14.714,0,0,1,.972-4.885A9.876,9.876,0,0,0,48.7,22.4c.584-.781,1.016-1.664,1.678-2.394a8.214,8.214,0,0,1,9.619-2.144c.476.2.932.444,1.4.668a.788.788,0,0,1,.552.229c.8.828,1.493.512,2.24-.1a3.18,3.18,0,0,1,1.721-.773c3.8-1.481,7.563-.577,9.8,2.354a3.4,3.4,0,0,1-1.632,2.4,1.2,1.2,0,0,1-.676-.509A5.349,5.349,0,0,0,66.253,21.1c-.419.257-.819.545-1.22.831a3.039,3.039,0,0,1-4.194-.062,8.73,8.73,0,0,0-2.993-1.524,6.909,6.909,0,0,0-3,.071c-1.683-.18-2.506.422-3.062,2.244a7.18,7.18,0,0,1-.323,1.167,13.849,13.849,0,0,0-.8,7.731,3.459,3.459,0,0,0,2.657,3.338.544.544,0,0,1,.278.2c-.015.3-.252.372-.466.423a33.326,33.326,0,0,1-3.69.758.737.737,0,0,1-.565-.145" transform="translate(-19.918 -7.198)" fill="#db2f02"/>
    <path id="Trazado_123377" data-name="Trazado 123377" d="M49.913,38.372a27.7,27.7,0,0,0,4.694-1.038.78.78,0,0,1,.577-.238c5.793-.056,11.587-.013,17.38-.026,2.376-.006,3.335-.77,3.695-3.122.446-2.91.42-5.781-1.077-8.455a1.081,1.081,0,0,1-.125-.414.443.443,0,0,1,.106-.293,12.867,12.867,0,0,0,1.582-2.3c.711.579.98,1.475,1.545,2.159a1.422,1.422,0,0,1,.549.86,16.883,16.883,0,0,1-.387,12.725c-.274.684-.436,1.47-1.19,1.861-3.591.01-7.181.029-10.772.028q-7.862,0-15.725-.027l-.853-1.719" transform="translate(-20.96 -9.442)" fill="#cf0000"/>
    <path id="Trazado_123378" data-name="Trazado 123378" d="M142.188,69.392l-2.811-.012q.318-5.449.566-10.9c.086-1.929.194-3.861.306-5.791a2.466,2.466,0,0,1,2.445-.03c1.7.012,2.055.387,1.919,2.132q-.512,6.6-1.058,13.2a1.371,1.371,0,0,1-1.367,1.4" transform="translate(-58.53 -21.983)" fill="#9d7059"/>
    <path id="Trazado_123379" data-name="Trazado 123379" d="M97.064,40.113a18.43,18.43,0,0,0,2.278-7.184,16.745,16.745,0,0,0-1.25-8.262,7.277,7.277,0,0,1,3.866-2.128c.917.48,1.169,1.437,1.612,2.256.153.282-.092.31-.281.4a2.478,2.478,0,0,0-1.547,2.544c.046,2.365.041,4.73-.142,7.1a2.085,2.085,0,0,0,1.667,2.394c.544.185.579.445.371.871-.329.675-.668,1.346-1,2.019H97.064" transform="translate(-40.761 -9.465)" fill="#9c0208"/>
    <path id="Trazado_123380" data-name="Trazado 123380" d="M134.89,43.494l-2.446.03q-5.219-.013-10.436-.027c-.406,0-.811-.017-1.216-.027a26.22,26.22,0,0,0,4.675-2.4,4.04,4.04,0,0,0,.371-.349.632.632,0,0,1,.4-.223c1.557-.091,3.116-.019,4.675-.044,1.31-.021,1.779-.469,1.8-1.771a16.459,16.459,0,0,0-.338-4.647.4.4,0,0,1,.091-.285,23.24,23.24,0,0,0,1.761-3.222,14.232,14.232,0,0,1,1.615,8.163,26.719,26.719,0,0,1-.954,4.8" transform="translate(-50.726 -12.82)" fill="#9c0208"/>
    <path id="Trazado_123381" data-name="Trazado 123381" d="M75.14,10.688a16.433,16.433,0,0,0-2.629,1.644c-.166.146-.327.224-.534.057-.445-.358-.9-.707-1.349-1.059a30.518,30.518,0,0,0-.642-6.055,2.111,2.111,0,0,1-.2-1.244c.328-.618-.08-1.209-.081-1.819A9.569,9.569,0,0,0,69.446.595c-.066-.369-.022-.6.455-.591,1.07.025,2.141.031,3.21,0,.488-.016.588.262.632.628.38,3.148.883,6.281,1.077,9.451.015.25-.05.545.321.609" transform="translate(-29.153 0)" fill="#9d7059"/>
    <path id="Trazado_123382" data-name="Trazado 123382" d="M18.521,84.511l-13.083,0a1.619,1.619,0,0,1-1-.173q-.105-1.307-.21-2.613l14.13.019a2.7,2.7,0,0,1,.168,2.765" transform="translate(-1.774 -34.32)" fill="#8d5b44"/>
    <path id="Trazado_123383" data-name="Trazado 123383" d="M60.384,4.427c.174.4.43.781.2,1.244-.536,1.2-1.7,1.275-2.723,1.3A12.16,12.16,0,0,1,47.319,2.193c-.433-.559-.367-.8.3-.948a3.781,3.781,0,0,1,1.249-.3,1.751,1.751,0,0,1,.682.372,11.82,11.82,0,0,0,9.754,2.332.912.912,0,0,1,.43.029,1.641,1.641,0,0,1,.647.745" transform="translate(-19.756 -0.396)" fill="#4c6834"/>
    <path id="Trazado_123384" data-name="Trazado 123384" d="M61.06,3.366a8.611,8.611,0,0,1-5.054.2A9.89,9.89,0,0,1,50.194.632,9.389,9.389,0,0,1,55.251.45,11.552,11.552,0,0,1,61.06,3.366" transform="translate(-21.078 -0.079)" fill="#587442"/>
    <path id="Trazado_123385" data-name="Trazado 123385" d="M92.059,104.03H75.35a5.812,5.812,0,0,1-.038-2.733c.18-2.892.43-5.779.636-8.67q.2-2.775.43-5.548c.014-.173.048-.345.061-.519.135-1.713.092-1.76-1.638-1.76q-7.962,0-15.926,0a2.638,2.638,0,0,1-1.445-.2,3.36,3.36,0,0,1-.216-2.839H77.092c.289.327.183.707.148,1.078-.124,1.316-.046,1.411,1.248,1.412,4.517,0,9.034,0,13.551.006a2,2,0,0,1,1.416.269l.011.011c-.132,3.141-.4,6.272-.685,9.4-.178,1.954-.237,3.917-.372,5.874-.1,1.409-.233,2.814-.351,4.222" transform="translate(-23.928 -34.333)" fill="#8d5b44"/>
    <path id="Trazado_123386" data-name="Trazado 123386" d="M45.289,81.757q.091,1.385.183,2.77l-.129.116a1.87,1.87,0,0,1-.931.16q-7.251.014-14.5,0a1.924,1.924,0,0,1-1.161-.283h0a11.938,11.938,0,0,0-.168-2.765H45.289" transform="translate(-12.003 -34.333)" fill="#774632"/>
    <path id="Trazado_123387" data-name="Trazado 123387" d="M107.862,84.52c-5.176,0-10.352-.017-15.528.024-.86.007-1.142-.265-1.023-1.078.084-.567.126-1.14.187-1.711l16.535,0a10.345,10.345,0,0,1-.171,2.767" transform="translate(-38.335 -34.331)" fill="#774632"/>
    <path id="Trazado_123388" data-name="Trazado 123388" d="M14.92,65.26a2.787,2.787,0,1,1-2.836-2.76,2.762,2.762,0,0,1,2.836,2.76" transform="translate(-3.925 -26.246)" fill="#666"/>
    <path id="Trazado_123389" data-name="Trazado 123389" d="M41,62.5a2.788,2.788,0,1,1-2.825,2.77A2.763,2.763,0,0,1,41,62.5" transform="translate(-16.033 -26.246)" fill="#666"/>
    <path id="Trazado_123390" data-name="Trazado 123390" d="M72.169,68.074A2.788,2.788,0,1,1,74.988,65.3a2.76,2.76,0,0,1-2.819,2.777" transform="translate(-29.15 -26.246)" fill="#666"/>
    <path id="Trazado_123391" data-name="Trazado 123391" d="M103.4,62.5a2.787,2.787,0,1,1-2.756,2.839A2.761,2.761,0,0,1,103.4,62.5" transform="translate(-42.266 -26.246)" fill="#666"/>
    <path id="Trazado_123392" data-name="Trazado 123392" d="M135.056,65.3a2.787,2.787,0,1,1-2.8-2.8,2.762,2.762,0,0,1,2.8,2.8" transform="translate(-54.374 -26.246)" fill="#666"/>
    <path id="Trazado_123393" data-name="Trazado 123393" d="M18.121,135.174c-1.428-1.083-1.872-2.155-1.434-3.464a2.747,2.747,0,0,1,2.514-1.923,2.786,2.786,0,0,1,2.662,1.6,2.714,2.714,0,0,1-.606,3.177c-.225.22-.476.415-.715.621a4.23,4.23,0,0,1-2.421-.009" transform="translate(-6.939 -54.502)" fill="#666"/>
    <path id="Trazado_123394" data-name="Trazado 123394" d="M70.453,134.831a2.969,2.969,0,0,1-.965-2.966,2.787,2.787,0,0,1,5.187-.572,2.719,2.719,0,0,1-.483,3.194c-.1.106-.174.227-.26.341a3.153,3.153,0,0,1-3.479,0" transform="translate(-29.137 -54.495)" fill="#666"/>
    <path id="Trazado_123395" data-name="Trazado 123395" d="M96.733,134.655c-1.393-1.811-1-3.948.867-4.678a2.786,2.786,0,0,1,3.171,4.4c-.072.089-.132.187-.2.281a2.925,2.925,0,0,1-3.84,0" transform="translate(-40.272 -54.497)" fill="#666"/>
    <path id="Trazado_123396" data-name="Trazado 123396" d="M122.952,134.484a2.813,2.813,0,0,1-.32-3.323,2.68,2.68,0,0,1,2.626-1.378c1.258.08,2.113.883,2.583,2.43a2.847,2.847,0,0,1-4.889,2.272" transform="translate(-51.328 -54.498)" fill="#666"/>
    <path id="Trazado_123397" data-name="Trazado 123397" d="M44.186,134.848a2.782,2.782,0,1,1,3.15,0,2.65,2.65,0,0,1-3.15,0" transform="translate(-18.041 -54.492)" fill="#666"/>
    <path id="Trazado_123398" data-name="Trazado 123398" d="M57.573,86.518c6.127,0,12.253.013,18.379-.018.763,0,1.024.188.972.969-.143,2.158-.324,4.313-.5,6.469-.132,1.61-.244,3.223-.357,4.834-.17,2.417-.314,4.836-.541,7.248l-16.4,0a.935.935,0,0,1-.415-.9c-.106-2.665-.383-5.318-.564-7.978-.219-3.208-.5-6.413-.716-9.623C57.407,87.172,57.317,86.821,57.573,86.518Z" transform="translate(-24.103 -36.325)" fill="#9d7059"/>
    <path id="Trazado_123399" data-name="Trazado 123399" d="M45.594,86.529c.233,3.153.442,6.308.7,9.459s.57,6.3.7,9.461a2.754,2.754,0,0,0,.152.58l-16.7,0c-.313-3.12-.487-6.251-.717-9.377-.235-3.184-.561-6.361-.692-9.553a2.563,2.563,0,0,0-.164-.577l16.723,0" transform="translate(-12.124 -36.336)" fill="#8d5b44"/>
    <path id="Trazado_123400" data-name="Trazado 123400" d="M12.916,27.023a6.713,6.713,0,0,1,4.65,1.77,2.722,2.722,0,0,0,3.578.017A7.284,7.284,0,0,1,26.589,27c.693.067.888.224.539.892a19.919,19.919,0,0,1-7.727,8A27.24,27.24,0,0,1,10.539,39a3.575,3.575,0,0,1-3.847-3.214,8.647,8.647,0,0,1,3.5-8.048,3.776,3.776,0,0,1,2.721-.716" transform="translate(-2.799 -11.325)" fill="#db2f02"/>
    <path id="Trazado_123401" data-name="Trazado 123401" d="M127.484,32.262c0,.053-.006.107-.008.16a8.606,8.606,0,0,1-1.963,2.933,15.959,15.959,0,0,1-4.318,3.856l-.339.021q-5.483-.005-10.967-.01c-.973,0-.984-.035-.705-.988a16.493,16.493,0,0,0-.1-10.359c-.3-.846-.225-.946.689-.842a7.458,7.458,0,0,1,3.7,1.765,2.684,2.684,0,0,0,3.574.015,6.93,6.93,0,0,1,6.454-1.589,3.214,3.214,0,0,0,.973,2.463,1.656,1.656,0,0,0,2.275.282c.07.821.729,1.452.734,2.293" transform="translate(-45.743 -11.332)" fill="#db2f02"/>
    <path id="Trazado_123402" data-name="Trazado 123402" d="M137.233,30.053c-.31.727-.836.758-1.486.49a2.785,2.785,0,0,1-1.762-3.236,2.548,2.548,0,0,1,3.086,1.82,7.082,7.082,0,0,1,.162.926" transform="translate(-56.225 -11.416)" fill="#fe8794"/>
    <path id="Trazado_123403" data-name="Trazado 123403" d="M56.1,37.1l-.518.013c-1.777-.129-2.865-1.275-3.132-3.334-.369-2.845-.4-5.656.937-8.307.148-.294-.011-.65.231-.908.72,1.132,1.5,1.131,2.375,0a2.594,2.594,0,0,0,.575-1.417,1.3,1.3,0,0,1,.182-.824c2.363-.893,4.372-.054,6.2,1.367a2.93,2.93,0,0,0,3.939.107,8.733,8.733,0,0,1,2.881-1.554,5.341,5.341,0,0,1,5.919,1.927,3.085,3.085,0,0,0,.448.4c0,.057-.009.114-.014.172a14.115,14.115,0,0,1-3.516,4.035,39.084,39.084,0,0,1-13.825,7.653A24.869,24.869,0,0,1,56.1,37.1" transform="translate(-21.933 -9.217)" fill="#df4805"/>
    <path id="Trazado_123404" data-name="Trazado 123404" d="M57.754,22.412A2.96,2.96,0,0,1,56.3,25.565c-1.115.588-1.588.331-1.676-.909a3.288,3.288,0,0,1,1.31-2.047,1.474,1.474,0,0,1,1.822-.2" transform="translate(-22.938 -9.313)" fill="#fe8795"/>
    <path id="Trazado_123405" data-name="Trazado 123405" d="M58.9,39.113c1.6-.563,3.22-1.1,4.81-1.7a37.13,37.13,0,0,0,11.068-6.378,47.789,47.789,0,0,0,4.147-4.288c1.981,3.168,1.908,6.585,1.149,10.055a2.924,2.924,0,0,1-2.89,2.314q-9.141.008-18.283-.006" transform="translate(-24.734 -11.233)" fill="#db2f02"/>
    <path id="Trazado_123406" data-name="Trazado 123406" d="M130.077,43.146q1.219-1.082,2.439-2.164a27.873,27.873,0,0,0,3.843-4.625,3.865,3.865,0,0,1,.5,1.981c.064,1.069.037,2.146.012,3.218a1.558,1.558,0,0,1-1.658,1.6c-1.711,0-3.422-.006-5.132-.01" transform="translate(-54.624 -15.268)" fill="#cf0000"/>
  </g>
</svg>
